<?xml version="1.0" standalone="no"?>
<!DOCTYPE svg PUBLIC "-//W3C//DTD SVG 20010904//EN"
 "http://www.w3.org/TR/2001/REC-SVG-20010904/DTD/svg10.dtd">
<svg version="1.0" xmlns="http://www.w3.org/2000/svg"
 width="current" height="current" viewBox="0 0 1592.000000 1713.000000"
 preserveAspectRatio="xMidYMid meet">

<g transform="translate(0.000000,1713.000000) scale(0.100000,-0.100000)"
fill="#000000" stroke="none">
<path d="M5586 16840 c-749 -55 -1417 -357 -1871 -845 -61 -65 -155 -165 -210
-224 -129 -137 -204 -224 -298 -348 -455 -602 -747 -1367 -856 -2248 -38 -305
-45 -427 -45 -785 0 -370 8 -510 50 -870 41 -358 44 -389 50 -560 15 -390 -50
-698 -196 -919 -72 -109 -146 -186 -276 -282 -55 -40 -151 -125 -215 -189 -94
-94 -122 -129 -152 -190 -62 -126 -68 -259 -17 -392 l19 -51 -98 -102 c-593
-617 -919 -1709 -1046 -3510 -41 -592 -49 -777 -47 -1135 4 -799 48 -1258 162
-1685 61 -229 162 -478 243 -600 151 -224 390 -362 665 -382 83 -6 83 -6 78
-32 -55 -261 -118 -620 -118 -668 0 -74 24 -132 64 -151 36 -17 91 -2 129 34
32 31 41 66 64 254 8 69 22 176 30 239 8 63 16 158 16 211 l0 98 117 6 c544
31 980 140 1820 455 414 155 839 337 1092 466 58 30 108 51 111 47 4 -4 16
-70 28 -147 59 -386 79 -773 62 -1173 l-13 -277 27 -22 c31 -27 55 -29 95 -8
51 27 54 52 54 585 1 418 -2 503 -17 615 -26 179 -42 253 -83 370 -19 55 -35
106 -37 114 -1 9 33 34 88 64 179 98 440 249 460 267 17 15 46 18 175 23 85 3
254 19 375 36 221 30 658 77 985 105 325 28 842 67 844 64 4 -5 -11 -756 -24
-1258 -13 -478 -10 -642 15 -689 28 -54 124 -49 147 8 12 30 24 619 30 1419 3
523 3 533 23 537 11 2 124 11 250 19 127 9 348 26 493 37 145 12 265 19 267
17 3 -2 -2 -40 -11 -84 -21 -101 -24 -672 -6 -974 41 -677 62 -838 114 -887
45 -42 103 -39 146 8 40 42 44 100 22 372 -24 306 -40 600 -40 723 l0 92 48
-5 c26 -3 121 -16 212 -29 217 -32 367 -39 520 -25 330 30 622 104 1149 289
241 85 256 89 295 78 26 -7 148 -11 336 -10 782 3 1285 131 1571 402 87 81
137 147 192 252 84 158 133 357 144 585 l6 121 65 38 c87 51 136 98 176 165
18 31 56 88 85 126 58 78 144 226 192 331 49 108 308 775 413 1060 118 323
334 969 420 1255 214 712 376 1443 376 1696 0 220 -47 310 -190 367 -41 17
-86 18 -535 17 -506 -1 -1388 -14 -2235 -31 -973 -20 -937 -17 -1126 -79 -243
-80 -386 -228 -504 -525 -29 -74 -94 -286 -227 -746 -103 -355 -267 -974 -429
-1614 l-149 -589 -12 99 c-7 54 -33 290 -58 524 -48 454 -64 585 -96 775 -138
841 -439 1324 -1077 1728 -59 37 -221 125 -359 194 -139 69 -250 129 -247 134
2 4 48 6 102 2 54 -3 113 -1 133 4 30 9 49 6 110 -14 56 -19 87 -24 126 -20
309 32 397 450 130 621 -46 30 -51 37 -113 181 -107 245 -150 363 -184 497
l-31 127 51 67 c64 84 162 282 194 396 72 252 97 528 77 833 -18 251 -128
1325 -172 1665 -42 331 -118 787 -164 988 -8 35 -15 67 -15 72 0 5 19 14 43
21 125 33 150 152 88 419 -100 428 -273 757 -546 1039 -162 167 -316 282 -505
376 -52 26 -140 76 -196 111 -352 219 -786 368 -1224 418 -172 20 -441 27
-594 16z m1014 -1485 c232 -47 482 -101 556 -120 530 -137 846 -307 1104 -592
41 -45 89 -90 108 -99 19 -9 47 -30 64 -47 l29 -32 -5 -220 c-6 -222 5 -660
24 -945 10 -139 22 -300 75 -975 40 -506 45 -591 45 -753 0 -346 -43 -567
-154 -792 -67 -135 -120 -206 -230 -308 -339 -315 -813 -472 -1424 -472 -296
0 -710 51 -855 106 -42 16 -95 18 -116 5 -21 -14 -7 -87 26 -135 35 -52 132
-102 223 -115 62 -10 244 -23 491 -36 l116 -7 6 -106 c11 -232 138 -484 351
-698 56 -55 120 -113 144 -129 l43 -28 -28 -29 c-54 -57 -167 -123 -263 -155
-131 -44 -244 -58 -465 -57 -557 0 -1222 163 -1797 439 l-98 46 30 37 c65 82
129 267 150 436 23 180 -1 467 -55 666 -8 30 -15 73 -15 94 0 21 -6 44 -14 50
-8 6 -31 58 -51 114 -79 222 -205 471 -339 667 -41 61 -100 157 -131 215 -30
58 -82 142 -114 187 -50 69 -57 83 -45 95 21 21 32 70 23 96 -13 34 -64 51
-222 73 -165 23 -218 44 -302 121 -63 57 -129 178 -145 267 -26 142 -4 330 54
457 48 105 166 234 230 250 15 3 51 -10 109 -40 95 -50 145 -58 196 -31 54 28
57 92 7 140 l-34 32 45 64 c25 35 138 204 253 374 l207 310 104 75 c333 240
607 476 940 809 259 259 434 458 602 683 70 93 85 108 104 103 13 -3 212 -44
443 -90z m453 -5602 c-19 -52 -26 -88 -27 -153 0 -47 2 -97 6 -111 9 -31 4
-34 -63 -44 l-44 -6 -22 53 c-38 89 -64 170 -79 246 -8 41 -14 76 -14 78 0 2
61 4 135 4 l134 0 -26 -67z m76 -485 c42 -62 88 -109 153 -156 48 -35 57 -47
63 -82 4 -23 4 -44 1 -47 -17 -17 -216 159 -292 258 -24 32 -44 60 -44 63 0 3
20 6 45 6 41 0 46 -3 74 -42z m517 -278 c26 -12 83 -30 126 -41 43 -11 140
-50 216 -86 75 -35 184 -85 242 -110 806 -350 1220 -778 1406 -1453 81 -292
118 -537 184 -1225 33 -344 72 -644 96 -740 19 -73 51 -150 78 -187 l19 -27
-48 -188 c-26 -103 -50 -191 -54 -196 -4 -4 -34 14 -67 39 -74 58 -211 150
-286 193 -52 29 -58 36 -58 64 0 18 -7 147 -15 287 -38 650 -73 954 -146 1260
-38 162 -110 381 -127 388 -29 11 -31 -16 -6 -108 96 -366 132 -711 141 -1347
5 -322 3 -423 -6 -423 -6 0 -37 13 -69 29 -85 43 -215 95 -323 129 -286 92
-560 105 -791 37 l-78 -22 0 116 c0 551 -82 1337 -215 2078 -74 408 -256 1224
-341 1531 -6 20 -3 22 34 22 22 0 62 -9 88 -20z m7649 -25 c46 -26 50 -36 61
-131 7 -71 -4 -167 -52 -429 -132 -721 -365 -1516 -749 -2555 -341 -923 -441
-1152 -600 -1360 -52 -69 -106 -142 -120 -162 -14 -21 -29 -38 -34 -38 -4 0
-11 44 -15 98 -20 298 -97 566 -195 684 -57 67 -145 93 -231 68 -31 -9 -37 -8
-50 12 -8 13 -33 42 -57 65 -73 73 -157 69 -230 -10 -39 -42 -82 -135 -84
-180 0 -12 -4 -30 -8 -40 -6 -16 -9 -16 -30 7 -26 28 -77 42 -114 32 -59 -14
-98 -95 -112 -231 -3 -33 -8 -77 -11 -97 l-6 -37 -28 21 c-34 24 -64 20 -108
-17 -52 -44 -102 -167 -177 -435 -63 -228 -149 -310 -438 -414 -52 -19 -126
-48 -164 -64 -47 -20 -93 -32 -148 -36 -71 -6 -327 -48 -655 -106 -168 -30
-699 -98 -891 -115 -91 -7 -178 -17 -192 -20 l-27 -7 -2 118 c-4 211 -3 224
30 315 43 115 167 586 417 1574 427 1691 626 2428 775 2870 105 309 181 422
334 494 45 22 119 51 166 66 82 26 96 28 395 35 712 19 2338 45 2969 48 l339
2 42 -25z m-10704 -64 c501 -242 1088 -420 1569 -476 165 -20 443 -19 577 1
259 38 471 135 630 287 l42 40 10 -39 c5 -22 39 -176 75 -344 231 -1083 351
-1951 376 -2715 6 -170 13 -347 17 -392 l6 -81 -89 -45 c-214 -107 -557 -248
-838 -343 -303 -103 -523 -169 -1331 -398 -203 -57 -457 -132 -563 -165 -107
-34 -198 -61 -203 -61 -5 0 -9 134 -9 323 -1 1409 -147 2932 -404 4207 -29
146 -51 268 -49 273 7 12 17 9 184 -72z m-461 3 l115 -2 42 -204 c92 -448 142
-757 203 -1263 106 -882 153 -1616 170 -2660 6 -349 15 -630 20 -643 12 -28
25 -22 -259 -121 -488 -172 -718 -219 -1005 -208 -150 6 -183 12 -582 93
l-141 29 -11 315 c-7 173 -14 392 -17 485 -3 94 -10 303 -15 465 -11 302 -4
559 21 763 13 107 5 147 -30 147 -35 0 -48 -27 -71 -145 -55 -293 -65 -540
-53 -1343 4 -298 5 -542 1 -542 -3 0 -59 10 -125 21 -182 33 -443 30 -844 -10
-314 -31 -495 -56 -613 -87 -85 -22 -214 -67 -263 -93 -23 -11 -45 -21 -48
-21 -9 0 -5 625 5 845 50 1030 202 2116 386 2744 151 518 420 1018 665 1239
l49 44 60 -31 c219 -109 504 -64 745 119 66 50 68 50 92 35 50 -33 139 -56
235 -62 107 -6 178 4 304 44 l81 26 54 -26 c30 -15 83 -34 119 -43 137 -35
374 2 520 81 25 13 52 21 60 18 8 -4 67 -8 130 -9z m4596 -3719 c305 -52 633
-198 1036 -461 76 -49 128 -90 125 -97 -2 -7 -17 -61 -32 -122 -16 -60 -30
-112 -32 -114 -1 -2 -56 47 -120 110 -331 322 -516 419 -802 419 -121 0 -417
-30 -440 -44 -18 -12 -12 -36 12 -45 12 -5 94 -12 182 -15 502 -22 597 -64
951 -425 l172 -174 -21 -76 c-11 -42 -21 -78 -23 -80 -2 -2 -38 29 -81 69 -90
83 -251 194 -365 251 -217 109 -487 157 -613 109 -18 -7 -53 -6 -118 5 -171
28 -357 15 -520 -35 -37 -11 -67 -25 -67 -29 0 -5 93 -11 208 -14 169 -4 229
-10 328 -31 205 -43 381 -115 544 -221 73 -48 298 -260 287 -271 -10 -10 -185
55 -350 130 -274 125 -406 160 -602 158 -189 -1 -281 -34 -641 -225 -311 -165
-416 -204 -595 -222 -72 -8 -221 7 -313 31 -50 13 -61 13 -73 1 -20 -20 -7
-42 42 -68 52 -28 68 -14 -160 -144 l-170 -97 -335 -49 c-365 -52 -865 -133
-893 -144 -9 -4 -20 -18 -23 -31 -6 -25 12 -84 26 -84 5 0 14 -17 21 -37 14
-43 30 -71 72 -126 16 -21 28 -39 26 -41 -7 -5 -807 -351 -974 -421 -474 -199
-1192 -465 -1535 -568 -470 -142 -781 -197 -1115 -197 -97 0 -211 6 -265 15
-103 15 -253 56 -303 82 -54 27 -179 163 -231 250 l-48 82 63 106 c139 233
339 474 669 805 296 297 371 356 709 565 95 59 197 127 225 150 90 73 99 73
245 11 371 -157 728 -193 1101 -110 144 33 275 74 665 209 366 127 598 199
1065 330 822 230 1086 312 1605 500 322 117 473 179 580 241 186 107 295 151
450 184 114 24 327 26 451 5z m4459 -79 c51 -87 126 -415 146 -641 14 -161 6
-326 -27 -533 -36 -224 -42 -334 -20 -367 13 -19 24 -25 44 -23 22 2 32 14 53
57 78 159 129 624 100 902 -15 142 -53 332 -87 439 -14 45 -23 84 -20 87 11
11 74 -19 104 -50 61 -64 101 -176 133 -382 18 -110 18 -640 1 -758 -41 -278
-131 -473 -284 -612 -102 -93 -326 -193 -548 -244 -302 -71 -822 -98 -1252
-65 -74 5 -79 4 -104 -21 -18 -18 -82 -46 -203 -89 -699 -250 -1101 -332
-1496 -304 -129 10 -351 5 -391 -7 -21 -7 -21 -6 -28 294 -5 169 -13 327 -20
361 -7 33 -12 60 -10 60 28 0 302 34 362 46 46 8 91 12 101 9 10 -3 43 6 73
20 39 18 85 28 154 35 367 35 1289 166 1511 215 21 5 22 3 13 -21 -15 -39 -12
-120 5 -134 27 -23 62 -2 110 65 91 128 153 168 390 255 227 83 319 144 395
261 42 66 64 122 119 314 22 77 48 158 57 180 l18 40 12 -55 c58 -243 27 -692
-58 -865 -37 -74 -104 -130 -173 -145 -43 -8 -46 -44 -6 -64 171 -89 354 180
402 587 8 70 9 150 3 257 -15 278 -7 423 33 614 16 79 17 79 35 56 27 -33 46
-105 83 -325 72 -417 92 -695 65 -890 -30 -209 -24 -255 30 -255 37 0 64 42
90 146 54 208 30 577 -70 1074 l-39 195 19 60 c10 33 29 96 41 139 39 136 86
165 134 82z m-4040 -814 c158 -71 276 -152 428 -293 l107 -101 -31 -59 c-25
-46 -37 -59 -55 -59 -12 0 -29 -3 -37 -6 -12 -4 -14 2 -10 33 4 33 -1 47 -46
110 -101 143 -237 268 -411 378 -83 52 -66 51 55 -3z m-630 -242 c77 -11 175
-39 175 -50 0 -6 -177 -90 -264 -125 -123 -49 -288 -69 -451 -54 -60 6 -123
14 -140 18 -29 7 -28 8 56 54 153 84 311 139 442 156 88 12 103 12 182 1z
m-6152 -123 c37 -8 70 -16 73 -19 5 -6 -140 -103 -318 -212 -62 -38 -158 -103
-213 -145 -127 -95 -603 -569 -749 -746 -95 -115 -246 -330 -300 -426 l-19
-34 -14 40 c-70 197 -150 696 -183 1149 -13 170 -20 151 90 210 179 94 365
132 865 175 127 12 246 23 265 25 74 9 437 -3 503 -17z m6647 -63 c67 -30 160
-67 206 -82 46 -15 84 -30 84 -33 0 -3 -28 -9 -62 -12 -35 -4 -142 -15 -238
-26 -96 -11 -323 -34 -505 -51 -181 -16 -349 -32 -372 -36 l-43 -5 0 35 c0 36
0 36 43 36 146 0 304 40 476 122 99 47 251 106 278 107 7 1 67 -24 133 -55z
m-1273 -104 c29 -11 81 -27 117 -36 l66 -16 0 -48 0 -49 -52 -5 c-29 -4 -159
-15 -288 -27 -129 -11 -364 -35 -522 -52 -159 -18 -288 -32 -288 -31 0 0 37
24 83 52 46 28 89 57 95 65 10 12 35 13 128 9 73 -3 143 0 187 8 85 15 234 65
338 114 41 19 76 35 79 35 3 1 28 -8 57 -19z m1941 -98 l33 -4 -3 -126 -3
-126 -30 -8 c-82 -22 -511 -66 -895 -93 -253 -18 -1620 -127 -1890 -150 -267
-24 -625 -63 -830 -90 -261 -35 -412 -47 -499 -39 -69 7 -76 10 -112 46 -35
36 -56 74 -47 83 9 10 824 136 1023 158 22 3 105 15 185 26 278 41 593 73
1310 136 775 68 1289 128 1620 189 41 8 82 11 90 8 8 -3 30 -7 48 -10z"/>
<path d="M7162 13913 c-57 -28 -76 -90 -48 -158 16 -39 52 -60 116 -69 207
-32 359 -76 535 -159 75 -35 145 -61 165 -61 31 -1 35 2 38 27 8 67 -139 224
-273 293 -85 44 -180 78 -335 119 -110 29 -152 31 -198 8z"/>
<path d="M5730 13860 c-173 -38 -338 -111 -458 -203 -144 -111 -295 -317 -233
-317 5 0 52 27 103 60 231 150 437 220 647 220 136 0 197 14 238 55 40 40 43
77 10 126 -51 77 -144 95 -307 59z"/>
<path d="M3609 12573 c-63 -33 -108 -90 -116 -150 -7 -53 12 -65 31 -19 15 37
59 66 98 66 43 -1 104 -37 144 -85 85 -104 120 -135 152 -135 140 0 164 127
46 244 -107 105 -243 135 -355 79z"/>
<path d="M6911 12521 c-16 -16 -20 -28 -15 -44 3 -12 7 -22 8 -23 0 0 22 -15
48 -32 57 -39 112 -101 144 -164 27 -54 32 -130 10 -181 -18 -44 -78 -95 -121
-103 -82 -15 -202 30 -330 125 -63 47 -74 52 -110 47 -51 -6 -95 -52 -95 -99
0 -40 28 -87 72 -120 89 -69 288 -137 398 -137 143 0 272 86 338 227 23 50 27
70 27 153 0 84 -3 103 -29 157 -51 111 -163 196 -275 210 -41 5 -52 2 -70 -16z"/>
<path d="M7150 11294 c-63 -65 -163 -132 -235 -160 -36 -14 -76 -19 -145 -19
-85 0 -101 3 -153 29 -37 19 -81 54 -119 95 -73 79 -91 90 -142 91 -49 0 -99
-31 -120 -74 -33 -70 -13 -119 87 -211 154 -143 367 -204 557 -159 204 48 384
214 406 375 5 39 3 50 -15 68 -34 34 -61 27 -121 -35z"/>
<path d="M5010 8150 c-11 -11 -20 -31 -20 -43 0 -64 127 -171 305 -257 427
-205 1018 -207 1452 -5 92 43 113 63 113 108 0 35 -36 77 -67 77 -14 0 -75
-16 -137 -34 -229 -71 -377 -101 -573 -116 -346 -26 -663 50 -914 221 -53 35
-117 69 -134 69 -3 0 -14 -9 -25 -20z"/>
</g>
</svg>
