<?xml version="1.0" standalone="no"?>
<!DOCTYPE svg PUBLIC "-//W3C//DTD SVG 20010904//EN"
 "http://www.w3.org/TR/2001/REC-SVG-20010904/DTD/svg10.dtd">
<svg version="1.0" xmlns="http://www.w3.org/2000/svg"
 width="82.000000pt" height="53.000000pt" viewBox="0 0 82.000000 53.000000"
 preserveAspectRatio="xMidYMid meet">

<g transform="translate(0.000000,53.000000) scale(0.100000,-0.100000)"
fill="#000000" stroke="none">
<path d="M643 514 c-30 -15 -63 -65 -63 -98 0 -32 -43 -129 -72 -161 -34 -40
-85 -59 -131 -50 -99 21 -233 143 -263 240 -21 66 -42 82 -82 63 -26 -13 -27
-17 -26 -84 0 -60 6 -82 37 -148 48 -102 138 -193 234 -239 60 -28 78 -32 153
-32 73 0 92 4 136 27 99 52 175 155 234 315 28 78 22 121 -21 157 -36 30 -87
34 -136 10z"/>
</g>
</svg>
